<svg width="1155" height="664" viewBox="0 0 1155 664" fill="none" xmlns="http://www.w3.org/2000/svg">
<g clip-path="url(#clip0)">
<path d="M250.256 589.081C283.43 589.081 310.323 562.189 310.323 529.015C310.323 495.841 283.43 468.948 250.256 468.948C217.083 468.948 190.19 495.841 190.19 529.015C190.19 562.189 217.083 589.081 250.256 589.081Z" fill="#F2F2F2"/>
<path d="M260.023 580.291C293.197 580.291 320.09 553.398 320.09 520.225C320.09 487.051 293.197 460.158 260.023 460.158C226.85 460.158 199.957 487.051 199.957 520.225C199.957 553.398 226.85 580.291 260.023 580.291Z" fill="#1793D1"/>
<path d="M1051.58 453.762H308.398V455.79H1051.58V453.762Z" fill="#3F3D56"/>
<path d="M693.294 18.9114H429.51V13.4745H309.899V18.9114H45.0272C42.684 18.9114 40.3638 19.3729 38.199 20.2696C36.0341 21.1663 34.0671 22.4806 32.4102 24.1375C30.7534 25.7944 29.4391 27.7614 28.5424 29.9262C27.6457 32.091 27.1841 34.4112 27.1841 36.7544V397.957C27.1841 402.689 29.064 407.228 32.4102 410.574C35.7565 413.92 40.2949 415.8 45.0272 415.8H693.294C698.027 415.8 702.565 413.92 705.911 410.574C709.257 407.228 711.137 402.689 711.137 397.957V36.7544C711.137 34.4112 710.676 32.091 709.779 29.9262C708.882 27.7614 707.568 25.7944 705.911 24.1375C704.254 22.4806 702.287 21.1663 700.123 20.2696C697.958 19.3729 695.637 18.9114 693.294 18.9114V18.9114Z" fill="#3F3D56"/>
<path d="M687.215 50.4449H51.1062V409.276H687.215V50.4449Z" fill="#1793D1"/>
<path d="M368.617 40.6587C372.22 40.6587 375.141 37.7377 375.141 34.1345C375.141 30.5313 372.22 27.6103 368.617 27.6103C365.014 27.6103 362.093 30.5313 362.093 34.1345C362.093 37.7377 365.014 40.6587 368.617 40.6587Z" fill="#1793D1"/>
<path opacity="0.1" d="M505.299 409.276H51.1064V50.4454L505.299 409.276Z" fill="black"/>
<path d="M150.638 382.424C184.408 382.424 211.783 355.049 211.783 321.28C211.783 287.51 184.408 260.135 150.638 260.135C116.869 260.135 89.4935 287.51 89.4935 321.28C89.4935 355.049 116.869 382.424 150.638 382.424Z" fill="#F2F2F2"/>
<path d="M576.458 243.965H517.039V256.381H576.458V243.965Z" fill="#3F3D56"/>
<path d="M648.294 147.298H445.203V152.619H648.294V147.298Z" fill="#3F3D56"/>
<path d="M648.294 164.148H445.203V169.469H648.294V164.148Z" fill="#3F3D56"/>
<path d="M648.294 180.998H445.203V186.319H648.294V180.998Z" fill="#3F3D56"/>
<path d="M648.294 197.849H445.203V203.17H648.294V197.849Z" fill="#3F3D56"/>
<path d="M648.294 214.699H445.203V220.02H648.294V214.699Z" fill="#3F3D56"/>
<path d="M648.294 57.7249H623.462V82.557H648.294V57.7249Z" fill="#F2F2F2"/>
<path d="M659.823 94.0861H629.67V63.9329H659.823V94.0861ZM630.981 92.7751H658.512V65.2439H630.981V92.7751Z" fill="#3F3D56"/>
<path d="M728.998 402.752H666.918V398.279C666.918 398.162 666.895 398.047 666.85 397.939C666.806 397.832 666.74 397.734 666.658 397.652C666.576 397.569 666.478 397.504 666.37 397.459C666.263 397.415 666.147 397.392 666.031 397.392H644.746C644.63 397.392 644.515 397.415 644.407 397.459C644.299 397.504 644.202 397.569 644.119 397.652C644.037 397.734 643.972 397.832 643.927 397.939C643.882 398.047 643.859 398.162 643.859 398.279V402.752H630.557V398.279C630.557 398.162 630.534 398.047 630.489 397.939C630.445 397.832 630.379 397.734 630.297 397.652C630.214 397.569 630.117 397.504 630.009 397.459C629.902 397.415 629.786 397.392 629.67 397.392H608.385C608.269 397.392 608.153 397.415 608.046 397.459C607.938 397.504 607.84 397.569 607.758 397.652C607.676 397.734 607.61 397.832 607.566 397.939C607.521 398.047 607.498 398.162 607.498 398.279V402.752H594.195V398.279C594.195 398.162 594.172 398.047 594.128 397.939C594.083 397.832 594.018 397.734 593.936 397.652C593.853 397.569 593.756 397.504 593.648 397.459C593.54 397.415 593.425 397.392 593.309 397.392H572.024C571.907 397.392 571.792 397.415 571.685 397.459C571.577 397.504 571.479 397.569 571.397 397.652C571.314 397.734 571.249 397.832 571.205 397.939C571.16 398.047 571.137 398.162 571.137 398.279V402.752H557.834V398.279C557.834 398.162 557.811 398.047 557.767 397.939C557.722 397.832 557.657 397.734 557.574 397.652C557.492 397.569 557.394 397.504 557.287 397.459C557.179 397.415 557.064 397.392 556.947 397.392H535.663C535.546 397.392 535.431 397.415 535.323 397.459C535.216 397.504 535.118 397.569 535.036 397.652C534.953 397.734 534.888 397.832 534.843 397.939C534.799 398.047 534.776 398.162 534.776 398.279V402.752H521.473V398.279C521.473 398.162 521.45 398.047 521.405 397.939C521.361 397.832 521.296 397.734 521.213 397.652C521.131 397.569 521.033 397.504 520.926 397.459C520.818 397.415 520.703 397.392 520.586 397.392H499.301C499.185 397.392 499.07 397.415 498.962 397.459C498.854 397.504 498.757 397.569 498.674 397.652C498.592 397.734 498.527 397.832 498.482 397.939C498.438 398.047 498.415 398.162 498.415 398.279V402.752H485.112V398.279C485.112 398.162 485.089 398.047 485.044 397.939C485 397.832 484.934 397.734 484.852 397.652C484.77 397.569 484.672 397.504 484.564 397.459C484.457 397.415 484.341 397.392 484.225 397.392H462.94C462.824 397.392 462.708 397.415 462.601 397.459C462.493 397.504 462.396 397.569 462.313 397.652C462.231 397.734 462.165 397.832 462.121 397.939C462.076 398.047 462.053 398.162 462.053 398.279V402.752H448.751V398.279C448.751 398.162 448.728 398.047 448.683 397.939C448.638 397.832 448.573 397.734 448.491 397.652C448.408 397.569 448.311 397.504 448.203 397.459C448.095 397.415 447.98 397.392 447.864 397.392H281.134C281.018 397.392 280.902 397.415 280.795 397.459C280.687 397.504 280.589 397.569 280.507 397.652C280.425 397.734 280.359 397.832 280.315 397.939C280.27 398.047 280.247 398.162 280.247 398.279V402.752H266.945V398.279C266.945 398.162 266.922 398.047 266.877 397.939C266.832 397.832 266.767 397.734 266.685 397.652C266.602 397.569 266.505 397.504 266.397 397.459C266.289 397.415 266.174 397.392 266.058 397.392H244.773C244.657 397.392 244.541 397.415 244.434 397.459C244.326 397.504 244.228 397.569 244.146 397.652C244.064 397.734 243.998 397.832 243.954 397.939C243.909 398.047 243.886 398.162 243.886 398.279V402.752H230.583V398.279C230.583 398.162 230.56 398.047 230.516 397.939C230.471 397.832 230.406 397.734 230.324 397.652C230.241 397.569 230.143 397.504 230.036 397.459C229.928 397.415 229.813 397.392 229.696 397.392H208.412C208.295 397.392 208.18 397.415 208.072 397.459C207.965 397.504 207.867 397.569 207.785 397.652C207.702 397.734 207.637 397.832 207.592 397.939C207.548 398.047 207.525 398.162 207.525 398.279V402.752H194.222V398.279C194.222 398.162 194.199 398.047 194.155 397.939C194.11 397.832 194.045 397.734 193.962 397.652C193.88 397.569 193.782 397.504 193.675 397.459C193.567 397.415 193.452 397.392 193.335 397.392H172.051C171.934 397.392 171.819 397.415 171.711 397.459C171.604 397.504 171.506 397.569 171.423 397.652C171.341 397.734 171.276 397.832 171.231 397.939C171.187 398.047 171.164 398.162 171.164 398.279V402.752H157.861V398.279C157.861 398.162 157.838 398.047 157.793 397.939C157.749 397.832 157.684 397.734 157.601 397.652C157.519 397.569 157.421 397.504 157.313 397.459C157.206 397.415 157.091 397.392 156.974 397.392H135.689C135.573 397.392 135.458 397.415 135.35 397.459C135.242 397.504 135.145 397.569 135.062 397.652C134.98 397.734 134.915 397.832 134.87 397.939C134.825 398.047 134.803 398.162 134.803 398.279V402.752H121.5V398.279C121.5 398.162 121.477 398.047 121.432 397.939C121.388 397.832 121.322 397.734 121.24 397.652C121.158 397.569 121.06 397.504 120.952 397.459C120.845 397.415 120.729 397.392 120.613 397.392H99.3282C99.2117 397.392 99.0964 397.415 98.9888 397.459C98.8812 397.504 98.7834 397.569 98.7011 397.652C98.6187 397.734 98.5534 397.832 98.5088 397.939C98.4643 398.047 98.4413 398.162 98.4413 398.279V402.752H85.1384V398.279C85.1384 398.162 85.1155 398.047 85.0709 397.939C85.0264 397.832 84.961 397.734 84.8787 397.652C84.7963 397.569 84.6986 397.504 84.591 397.459C84.4834 397.415 84.3681 397.392 84.2516 397.392H62.967C62.8505 397.392 62.7352 397.415 62.6276 397.459C62.52 397.504 62.4222 397.569 62.3399 397.652C62.2575 397.734 62.1922 397.832 62.1476 397.939C62.103 398.047 62.0801 398.162 62.0801 398.279V402.752H21.2846C15.6396 402.752 10.2258 404.994 6.23413 408.986C2.24249 412.977 5.37803e-06 418.391 0 424.036V433.661C1.61341e-05 439.306 2.2425 444.719 6.23414 448.711C10.2258 452.703 15.6396 454.945 21.2846 454.945H728.998C734.643 454.945 740.057 452.703 744.048 448.711C748.04 444.719 750.282 439.306 750.283 433.661V424.036C750.282 418.391 748.04 412.977 744.048 408.986C740.057 404.994 734.643 402.752 728.998 402.752Z" fill="#3F3D56"/>
<path d="M165.439 359.47C150.198 359.47 135.3 354.95 122.629 346.483C109.957 338.016 100.08 325.982 94.2482 311.902C88.416 297.822 86.89 282.328 89.8633 267.381C92.8365 252.433 100.175 238.703 110.952 227.927C121.728 217.15 135.458 209.811 150.406 206.838C165.353 203.865 180.847 205.391 194.927 211.223C209.007 217.055 221.041 226.932 229.508 239.604C237.975 252.275 242.495 267.173 242.495 282.414C242.472 302.843 234.346 322.429 219.9 336.875C205.454 351.321 185.868 359.447 165.439 359.47ZM165.439 207.385C150.6 207.385 136.094 211.786 123.755 220.03C111.417 228.274 101.8 239.992 96.1216 253.702C90.4429 267.411 88.9571 282.497 91.8521 297.051C94.7471 311.605 101.893 324.974 112.386 335.467C122.879 345.96 136.247 353.105 150.801 356C165.355 358.895 180.441 357.409 194.151 351.731C207.86 346.052 219.578 336.436 227.822 324.097C236.067 311.759 240.467 297.253 240.467 282.414C240.444 262.522 232.532 243.451 218.467 229.386C204.401 215.32 185.331 207.408 165.439 207.385V207.385Z" fill="#3F3D56"/>
<path d="M852.859 32.9954H594.316V35.0232H852.859V32.9954Z" fill="#3F3D56"/>
<path d="M1155 568.332H411.815V570.36H1155V568.332Z" fill="#3F3D56"/>
<path d="M453.892 661.611H195.349V663.638H453.892V661.611Z" fill="#3F3D56"/>
<path d="M505.934 557.642H477.545V586.031H505.934V557.642Z" fill="#1793D1"/>
<path d="M523.17 569.809H488.698V535.337H523.17V569.809ZM490.196 568.31H521.671V536.836H490.196V568.31Z" fill="#3F3D56"/>
<path d="M835.45 22.3057H807.061V50.6948H835.45V22.3057Z" fill="#1793D1"/>
<path d="M852.686 34.4724H818.214V0H852.686V34.4724ZM819.712 32.9736H851.187V1.4988H819.712V32.9736Z" fill="#3F3D56"/>
<path d="M1121.37 557.642H1092.98V586.031H1121.37V557.642Z" fill="#1793D1"/>
<path d="M1138.6 569.809H1104.13V535.337H1138.6V569.809ZM1105.63 568.31H1137.11V536.836H1105.63V568.31Z" fill="#3F3D56"/>
<path d="M1071.86 235.181H1069.45V169.114C1069.45 164.093 1068.46 159.121 1066.54 154.481C1064.62 149.842 1061.8 145.627 1058.25 142.076C1054.7 138.525 1050.48 135.709 1045.84 133.787C1041.21 131.866 1036.23 130.877 1031.21 130.877H891.24C886.218 130.877 881.246 131.866 876.607 133.787C871.967 135.709 867.752 138.525 864.201 142.076C860.651 145.627 857.834 149.842 855.913 154.481C853.991 159.121 853.002 164.093 853.002 169.114V531.563C853.002 536.585 853.991 541.557 855.913 546.196C857.834 550.835 860.651 555.051 864.201 558.601C867.752 562.152 871.967 564.969 876.607 566.89C881.246 568.812 886.218 569.801 891.24 569.801H1031.21C1036.23 569.801 1041.21 568.812 1045.84 566.89C1050.48 564.969 1054.7 562.152 1058.25 558.601C1061.8 555.051 1064.62 550.835 1066.54 546.196C1068.46 541.557 1069.45 536.585 1069.45 531.563V282.209H1071.86V235.181Z" fill="#3F3D56"/>
<path d="M1061.31 171.362V533.282C1061.31 540.855 1058.3 548.119 1052.95 553.476C1047.59 558.832 1040.33 561.842 1032.76 561.843H892.108C884.534 561.842 877.271 558.832 871.917 553.476C866.562 548.119 863.555 540.855 863.556 533.282V171.362C863.557 163.79 866.566 156.528 871.92 151.174C877.274 145.82 884.536 142.811 892.108 142.81H909.172C908.332 144.87 908.011 147.105 908.239 149.318C908.466 151.531 909.234 153.654 910.475 155.5C911.716 157.346 913.392 158.858 915.356 159.904C917.319 160.95 919.509 161.497 921.734 161.497H1001.92C1004.15 161.497 1006.34 160.95 1008.3 159.904C1010.26 158.858 1011.94 157.346 1013.18 155.5C1014.42 153.654 1015.19 151.531 1015.42 149.318C1015.64 147.105 1015.32 144.87 1014.48 142.81H1032.76C1040.33 142.811 1047.59 145.82 1052.94 151.174C1058.3 156.528 1061.31 163.79 1061.31 171.362V171.362Z" fill="#1793D1"/>
<path d="M983.38 381.445H941.482V393.861H983.38V381.445Z" fill="#3F3D56"/>
<path d="M1034.03 284.778H890.83V290.099H1034.03V284.778Z" fill="#3F3D56"/>
<path d="M1034.03 301.628H890.83V306.949H1034.03V301.628Z" fill="#3F3D56"/>
<path d="M1034.03 318.478H890.83V323.8H1034.03V318.478Z" fill="#3F3D56"/>
<path d="M1034.03 335.329H890.83V340.65H1034.03V335.329Z" fill="#3F3D56"/>
<path d="M1034.03 352.179H890.83V357.5H1034.03V352.179Z" fill="#3F3D56"/>
<path d="M967.434 214.113H942.602V238.945H967.434V214.113Z" fill="#F2F2F2"/>
<path d="M952.108 220.323V250.476H982.261V220.323H952.108ZM980.953 249.168H953.416V221.631H980.953V249.168Z" fill="#3F3D56"/>
<path opacity="0.1" d="M1061.31 494.632V533.282C1061.31 540.855 1058.3 548.119 1052.95 553.476C1047.59 558.832 1040.33 561.842 1032.76 561.843H892.108C884.534 561.842 877.271 558.832 871.917 553.476C866.562 548.119 863.555 540.855 863.556 533.282V338.401L982.05 432.014L984.078 433.616L1006.12 451.024L1008.18 452.657L1061.31 494.632Z" fill="black"/>
<path d="M950.265 550.114C974.829 550.114 994.742 530.201 994.742 505.637C994.742 481.072 974.829 461.159 950.265 461.159C925.701 461.159 905.787 481.072 905.787 505.637C905.787 530.201 925.701 550.114 950.265 550.114Z" fill="#F2F2F2"/>
<path d="M324.62 663.638C307.174 663.638 290.12 658.465 275.614 648.772C261.108 639.08 249.802 625.304 243.126 609.185C236.449 593.067 234.703 575.332 238.106 558.221C241.51 541.11 249.911 525.393 262.247 513.056C274.583 500.72 290.301 492.319 307.411 488.915C324.522 485.512 342.258 487.259 358.376 493.935C374.494 500.611 388.271 511.917 397.963 526.423C407.656 540.929 412.829 557.983 412.829 575.429C412.803 598.816 403.501 621.237 386.964 637.773C370.427 654.31 348.007 663.612 324.62 663.638ZM324.62 489.248C307.575 489.248 290.913 494.303 276.741 503.772C262.568 513.242 251.522 526.702 244.999 542.449C238.476 558.197 236.77 575.525 240.095 592.243C243.42 608.96 251.628 624.316 263.681 636.369C275.734 648.421 291.09 656.629 307.807 659.955C324.525 663.28 341.853 661.573 357.6 655.05C373.348 648.528 386.807 637.482 396.277 623.309C405.747 609.137 410.801 592.474 410.801 575.429C410.775 552.581 401.687 530.675 385.531 514.519C369.374 498.362 347.469 489.274 324.62 489.248V489.248Z" fill="#3F3D56"/>
<path d="M963.374 539.943C952.345 539.943 941.564 536.673 932.393 530.545C923.223 524.418 916.076 515.709 911.855 505.519C907.634 495.329 906.53 484.117 908.682 473.3C910.833 462.483 916.144 452.546 923.943 444.748C931.742 436.949 941.678 431.638 952.495 429.486C963.312 427.334 974.525 428.439 984.714 432.659C994.904 436.88 1003.61 444.028 1009.74 453.198C1015.87 462.368 1019.14 473.15 1019.14 484.179C1019.12 498.963 1013.24 513.137 1002.79 523.592C992.333 534.046 978.159 539.926 963.374 539.943V539.943ZM963.374 430.442C952.746 430.442 942.357 433.594 933.52 439.499C924.683 445.403 917.796 453.796 913.728 463.615C909.661 473.434 908.597 484.238 910.67 494.662C912.744 505.086 917.862 514.661 925.377 522.176C932.892 529.691 942.467 534.809 952.891 536.883C963.315 538.956 974.119 537.892 983.938 533.825C993.757 529.758 1002.15 522.87 1008.05 514.033C1013.96 505.196 1017.11 494.807 1017.11 484.179C1017.09 469.932 1011.43 456.273 1001.35 446.199C991.28 436.125 977.621 430.458 963.374 430.442Z" fill="#3F3D56"/>
</g>
<defs>
<clipPath id="clip0">
<rect width="1155" height="663.638" fill="white"/>
</clipPath>
</defs>
</svg>
