<svg width="991" height="638" viewBox="0 0 991 638" fill="none" xmlns="http://www.w3.org/2000/svg">
<g clip-path="url(#clip0)">
<path d="M826.528 637.002C827.187 636.421 827.831 635.825 828.461 635.213C835.882 628.004 849.19 613.015 855.495 605.838C855.937 605.335 856.267 604.745 856.465 604.106C856.663 603.467 856.724 602.793 856.643 602.129C856.563 601.465 856.343 600.825 855.998 600.251C855.653 599.678 855.191 599.184 854.643 598.801L842.396 590.25C842.869 590.011 843.133 589.876 843.133 589.876L834.346 577.167C835.317 557.751 793.984 504.914 783.64 497.013C773.297 489.113 807.911 426.705 807.911 426.705C813.175 424.668 817.431 420.341 820.69 415.754C820.888 415.789 821.086 415.828 821.287 415.857L825.717 415.449C827.567 415.279 829.298 414.46 830.602 413.137C831.907 411.815 832.702 410.073 832.845 408.22C833.301 402.995 833.465 397.748 833.337 392.505C834.239 389.787 834.258 384.88 840.161 380.986C847.879 375.895 897.451 248.513 874.642 225.195C874.642 225.195 864.926 210.668 859.43 208.889C859.43 208.889 860.3 204.635 857.033 202.722L855.451 197.736C855.451 197.736 853.327 198.673 850.165 200.142C847.688 196.501 845.478 192.686 843.55 188.726C844.647 183.966 861.098 162.996 846.343 148.498C831.373 133.788 823.979 123.807 812.826 127.786C801.673 131.765 775.468 137.703 776.235 147.058C777.002 156.412 774.294 160.089 779.123 163.928C783.951 167.768 784.119 167.451 784.119 167.451L784.12 167.45C782.93 172.098 782.918 176.968 784.084 181.622C785.249 186.275 787.556 190.565 790.796 194.103C794.036 197.641 798.106 200.317 802.639 201.887C807.172 203.457 812.025 203.873 816.759 203.097C818.995 207.385 820.84 211.867 822.271 216.486C820.891 219.109 820.423 222.116 820.941 225.033C815.917 232.459 811.349 240.183 807.26 248.162C803.989 254.473 797.938 267.839 791.308 282.08C779.663 278.324 769.133 274.525 769.133 274.525C769.133 274.525 768.522 275.244 767.564 276.425C764.266 275.864 760.931 275.551 757.587 275.487L729.473 247.175C729.097 246.743 728.575 246.465 728.006 246.394C727.438 246.323 726.864 246.465 726.393 246.791L701.686 258.502C701.392 258.773 701.156 259.102 700.993 259.468C700.83 259.834 700.743 260.229 700.738 260.629C700.732 261.029 700.808 261.427 700.96 261.797C701.113 262.167 701.339 262.502 701.625 262.783L726.104 288.77C724.183 290.831 727.453 293.35 732.734 295.809L739.165 302.636C739.373 302.897 739.636 303.11 739.934 303.259C740.233 303.408 740.561 303.49 740.895 303.499C741.229 303.508 741.56 303.443 741.867 303.31C742.173 303.177 742.446 302.978 742.667 302.727L744.847 300.431C748.824 301.741 752.764 302.901 755.949 303.794C755.715 304.939 755.881 305.78 756.623 306.143C757.971 306.802 765.127 310.783 774.891 315.758C770.982 323.122 767.586 328.737 765.289 330.954C758.256 337.745 758.426 356.482 758.786 363.832C756.543 367.191 753.404 372.34 753.474 374.738C741.076 393.202 719.031 428.022 715.617 446.922C715.617 446.922 699.594 468.296 697.329 496.4C695.063 524.504 666.408 589.599 664.59 590.528C664.314 590.669 664.357 591.249 664.696 592.103C655.228 595.379 679.84 637.201 684.851 635.787C689.206 634.558 695.787 612.275 695.778 605.428C695.929 605.389 696.076 605.361 696.228 605.32C696.228 605.32 702.25 589.056 706.797 586.733C711.343 584.41 734.684 512.283 734.584 500.868C734.569 499.117 736.085 496.177 738.655 492.46C740.452 499.87 744.878 506.376 751.11 510.769C784.183 532.855 806.704 601.612 810.826 602.946C811.065 603.008 811.313 603.034 811.56 603.022C811.911 612.828 811.717 631.422 805.388 633.817C803.485 634.533 801.772 635.679 800.383 637.165" fill="#F2F2F2"/>
<path d="M967.174 493.842C964.004 492.227 960.446 491.527 956.901 491.82C953.355 492.114 949.961 493.389 947.099 495.503C938.509 502.046 937.2 514.849 940.43 525.153C943.661 535.457 950.422 544.21 955.715 553.622C962.825 566.264 967.404 580.729 966.224 595.185C965.044 609.641 957.459 623.98 944.809 631.076C933.068 637.662 918.845 637.41 905.39 636.982" stroke="#F2F2F2" stroke-miterlimit="10"/>
<path d="M988.423 507.23C990.392 503.85 986.348 497.822 979.389 493.767C972.43 489.712 965.192 489.165 963.222 492.545C961.253 495.925 965.297 501.952 972.256 506.007C979.215 510.062 986.453 510.61 988.423 507.23Z" fill="#F2F2F2"/>
<path d="M975.007 553.424C976.976 550.044 972.932 544.017 965.973 539.961C959.014 535.906 951.776 535.359 949.807 538.739C947.837 542.119 951.882 548.146 958.84 552.202C965.799 556.257 973.037 556.804 975.007 553.424Z" fill="#F2F2F2"/>
<path d="M948.191 546.478C950.16 543.098 946.116 537.071 939.157 533.015C932.198 528.96 924.96 528.413 922.99 531.793C921.021 535.173 925.065 541.2 932.024 545.256C938.983 549.311 946.221 549.858 948.191 546.478Z" fill="#F2F2F2"/>
<path d="M964.471 601.297C966.441 597.917 962.396 591.889 955.437 587.834C948.479 583.779 941.241 583.232 939.271 586.612C937.301 589.992 941.346 596.019 948.305 600.074C955.264 604.129 962.502 604.677 964.471 601.297Z" fill="#F2F2F2"/>
<path d="M989.671 615.981C991.641 612.601 987.597 606.574 980.638 602.519C973.679 598.464 966.441 597.917 964.471 601.297C962.502 604.677 966.546 610.704 973.505 614.759C980.464 618.814 987.702 619.361 989.671 615.981Z" fill="#F2F2F2"/>
<path d="M886.567 482.314C883.015 482.515 879.589 483.701 876.673 485.74C873.757 487.778 871.467 490.589 870.059 493.856C865.931 503.835 871.246 515.555 879.225 522.832C887.204 530.108 897.453 534.267 906.765 539.734C919.273 547.076 930.512 557.269 936.771 570.354C943.029 583.438 943.695 599.645 936.338 612.145C929.51 623.747 917.095 630.691 905.253 637.095" stroke="#3F3D56" stroke-miterlimit="10"/>
<path d="M897.083 490.266C905.137 490.266 911.667 487.095 911.667 483.183C911.667 479.271 905.137 476.1 897.083 476.1C889.029 476.1 882.5 479.271 882.5 483.183C882.5 487.095 889.029 490.266 897.083 490.266Z" fill="#1793D1"/>
<path d="M908.75 536.933C916.804 536.933 923.333 533.762 923.333 529.85C923.333 525.938 916.804 522.766 908.75 522.766C900.696 522.766 894.167 525.938 894.167 529.85C894.167 533.762 900.696 536.933 908.75 536.933Z" fill="#1793D1"/>
<path d="M882.083 544.433C890.137 544.433 896.667 541.262 896.667 537.35C896.667 533.438 890.137 530.266 882.083 530.266C874.029 530.266 867.5 533.438 867.5 537.35C867.5 541.262 874.029 544.433 882.083 544.433Z" fill="#1793D1"/>
<path d="M923.75 583.6C931.804 583.6 938.333 580.428 938.333 576.516C938.333 572.604 931.804 569.433 923.75 569.433C915.696 569.433 909.167 572.604 909.167 576.516C909.167 580.428 915.696 583.6 923.75 583.6Z" fill="#1793D1"/>
<path d="M952.917 583.6C960.971 583.6 967.5 580.428 967.5 576.516C967.5 572.604 960.971 569.433 952.917 569.433C944.863 569.433 938.333 572.604 938.333 576.516C938.333 580.428 944.863 583.6 952.917 583.6Z" fill="#1793D1"/>
<path d="M555.5 637H967.5" stroke="#3F3D56" stroke-miterlimit="10"/>
<path d="M657.191 286.59C657.191 286.59 611.366 293.831 616.998 284.694C622.63 275.557 652.618 266.428 658.118 268.334C663.617 270.241 657.191 286.59 657.191 286.59Z" fill="#FFC1C7"/>
<path opacity="0.1" d="M657.191 286.59C657.191 286.59 611.366 293.831 616.998 284.694C622.63 275.557 652.618 266.428 658.118 268.334C663.617 270.241 657.191 286.59 657.191 286.59Z" fill="black"/>
<path d="M709.745 184.416C709.745 184.416 680.143 192.358 693.861 217.628C693.861 217.628 716.243 261.67 706.857 264.558C697.471 267.446 654.151 266.002 654.151 266.002C654.151 266.002 644.043 290.55 649.097 291.272C654.151 291.994 735.015 308.599 743.679 292.716C752.343 276.832 743.679 208.242 743.679 208.242C743.679 208.242 731.405 174.308 709.745 184.416Z" fill="#1793D1"/>
<path opacity="0.1" d="M709.745 184.416C709.745 184.416 680.143 192.358 693.861 217.628C693.861 217.628 716.243 261.67 706.857 264.558C697.471 267.446 654.151 266.002 654.151 266.002C654.151 266.002 644.043 290.55 649.097 291.272C654.151 291.994 735.015 308.599 743.679 292.716C752.343 276.832 743.679 208.242 743.679 208.242C743.679 208.242 731.405 174.308 709.745 184.416Z" fill="black"/>
<path d="M793.496 559.854C793.496 559.854 806.492 590.9 799.272 596.676C792.053 602.452 793.496 613.282 798.55 613.282C803.604 613.282 815.156 603.174 821.654 590.9C826.495 581.756 834.541 563.398 838.33 554.628C838.595 554.013 838.728 553.35 838.72 552.681C838.711 552.012 838.561 551.353 838.28 550.745C837.999 550.138 837.593 549.597 837.088 549.158C836.584 548.718 835.992 548.391 835.352 548.195L814.434 541.804L793.496 559.854Z" fill="#3F3D56"/>
<path d="M656.317 597.398C656.317 597.398 628.881 619.78 614.442 619.058C600.002 618.336 597.836 633.497 614.442 635.663C631.047 637.829 680.865 638.551 685.197 635.663C689.529 632.775 688.085 602.452 685.197 601.73C682.309 601.008 656.317 597.398 656.317 597.398Z" fill="#3F3D56"/>
<path d="M749.455 367.081C749.455 367.081 749.455 389.463 737.903 398.849C737.903 398.849 724.185 468.882 736.459 473.214C748.733 477.546 804.326 515.09 809.38 533.862L821.654 543.248C821.654 543.248 799.272 565.63 794.94 565.63C790.608 565.63 748.011 507.148 709.745 496.318C709.745 496.318 685.919 490.542 686.641 459.496C687.363 428.451 715.521 346.143 715.521 346.143H748.011L749.455 367.081Z" fill="#2F2E41"/>
<path opacity="0.1" d="M749.455 367.081C749.455 367.081 749.455 389.463 737.903 398.849C737.903 398.849 724.185 468.882 736.459 473.214C748.733 477.546 804.326 515.09 809.38 533.862L821.654 543.248C821.654 543.248 799.272 565.63 794.94 565.63C790.608 565.63 748.011 507.148 709.745 496.318C709.745 496.318 685.919 490.542 686.641 459.496C687.363 428.451 715.521 346.143 715.521 346.143H748.011L749.455 367.081Z" fill="black"/>
<path d="M674.367 351.919C674.367 351.919 652.707 419.787 656.317 446.5C656.317 446.5 647.653 471.77 654.151 499.206C660.649 526.642 653.429 597.398 651.985 598.842C650.541 600.286 667.869 615.447 686.641 603.174C686.641 603.174 687.363 585.846 690.973 582.236C694.583 578.626 694.583 502.816 690.973 491.986C687.363 481.156 729.961 402.459 729.961 402.459C729.961 402.459 753.065 381.521 744.401 370.691C735.737 359.861 745.123 338.201 745.123 338.201L679.421 342.533L674.367 351.919Z" fill="#2F2E41"/>
<path d="M664.259 186.582C680.209 186.582 693.139 173.652 693.139 157.702C693.139 141.752 680.209 128.823 664.259 128.823C648.309 128.823 635.379 141.752 635.379 157.702C635.379 173.652 648.309 186.582 664.259 186.582Z" fill="#FFC1C7"/>
<path d="M683.031 144.706C683.031 144.706 706.135 171.42 711.911 172.142C717.687 172.864 693.139 203.91 693.139 203.91C693.139 203.91 679.421 180.806 670.035 178.64C660.649 176.474 683.031 144.706 683.031 144.706Z" fill="#FFC1C7"/>
<path d="M716.243 171.42L712.633 166.366C712.633 166.366 687.757 188.542 686.838 194.421C686.218 197.72 686.926 201.13 688.807 203.91L703.247 197.412L710.467 182.972L716.243 171.42Z" fill="#3F3D56"/>
<path d="M672.923 350.475C672.923 350.475 667.147 367.803 671.479 367.081C675.811 366.359 675.811 356.973 680.865 356.973C685.919 356.973 688.807 349.031 688.807 349.031L672.923 350.475Z" fill="#3F3D56"/>
<path d="M709.745 351.919C709.745 351.919 726.351 388.019 747.289 384.409L751.377 382.657C753.085 381.926 754.48 380.614 755.314 378.954C756.148 377.293 756.368 375.391 755.934 373.585C753.939 365.269 750.272 351.919 747.289 351.919H709.745Z" fill="#3F3D56"/>
<path d="M635.442 159.515C635.442 159.515 638.267 150.482 647.653 154.092C657.039 157.702 664.981 165.644 667.147 159.868C669.313 154.092 674.856 148.779 678.583 153.241C682.309 157.702 699.276 166.005 698.554 161.673C697.832 157.341 707.579 131.71 688.807 122.325C670.035 112.939 659.927 105.719 650.541 112.939C641.155 120.159 618.052 133.876 621.662 142.54C625.272 151.204 623.827 155.536 629.603 157.702C635.379 159.868 635.442 159.515 635.442 159.515Z" fill="#2F2E41"/>
<path d="M719.853 175.752C719.853 175.752 719.131 169.254 712.633 170.698C706.135 172.142 688.807 201.022 688.807 201.022C685.979 210.243 683.807 219.652 682.309 229.18C679.421 246.508 673.645 310.043 667.869 320.873C662.093 331.703 672.923 356.973 672.923 356.973C672.923 356.973 679.421 349.753 700.359 354.085C721.297 358.417 748.733 362.749 750.899 360.583C753.065 358.417 748.733 352.641 754.509 345.421C760.285 338.201 768.227 201.744 739.347 186.582C739.347 186.582 725.629 175.752 719.853 175.752Z" fill="#1793D1"/>
<path opacity="0.1" d="M712.633 197.412C712.633 197.412 683.031 205.354 696.749 230.624C696.749 230.624 719.131 274.666 709.745 277.554C700.359 280.442 657.039 278.998 657.039 278.998C657.039 278.998 652.346 294.521 657.4 295.243C662.454 295.965 737.903 321.595 746.567 305.711C755.231 289.828 746.567 221.238 746.567 221.238C746.567 221.238 734.293 187.304 712.633 197.412Z" fill="black"/>
<path d="M586.308 275.615L634.295 301.974C634.573 302.159 634.889 302.281 635.219 302.33C635.549 302.38 635.886 302.357 636.207 302.263C636.527 302.168 636.823 302.005 637.073 301.783C637.323 301.562 637.522 301.289 637.655 300.983L649.411 276.411C649.634 275.711 649.597 274.954 649.309 274.277C649.02 273.601 648.499 273.052 647.839 272.728L607.997 252.192C607.506 251.897 606.924 251.793 606.362 251.901C605.799 252.008 605.296 252.319 604.949 252.775L585.048 271.524C584.852 271.873 584.729 272.258 584.686 272.656C584.644 273.054 584.683 273.457 584.801 273.84C584.919 274.222 585.113 274.577 585.372 274.882C585.631 275.188 585.95 275.437 586.308 275.615V275.615Z" fill="#2F2E41"/>
<path d="M589.51 271.985L634.498 297.699L646.469 276.122L607.876 255.135L589.51 271.985Z" fill="#3F3D56"/>
<path d="M628.114 264.7C628.353 264.5 628.357 264.111 628.123 263.83C627.889 263.549 627.505 263.483 627.265 263.683C627.026 263.883 627.021 264.272 627.256 264.553C627.49 264.834 627.874 264.9 628.114 264.7Z" fill="#F2F2F2"/>
<path d="M611.269 286.605C611.429 286.472 611.431 286.212 611.275 286.025C611.119 285.838 610.863 285.794 610.703 285.927C610.544 286.06 610.541 286.32 610.697 286.507C610.853 286.695 611.109 286.738 611.269 286.605Z" fill="#F2F2F2"/>
<path d="M657.862 297.531C657.862 297.531 611.582 300.776 617.984 292.161C624.386 283.546 655.052 277.048 660.366 279.424C665.68 281.8 657.862 297.531 657.862 297.531Z" fill="#FFC1C7"/>
<path d="M712.633 193.08C712.633 193.08 683.031 201.022 696.749 226.292C696.749 226.292 719.131 270.334 709.745 273.222C700.359 276.11 657.039 274.666 657.039 274.666C657.039 274.666 646.931 299.213 651.985 299.935C657.039 300.657 737.903 317.263 746.567 301.379C755.231 285.496 746.567 216.906 746.567 216.906C746.567 216.906 734.293 182.972 712.633 193.08Z" fill="#1793D1"/>
<path d="M511.06 161.33H278.079C270.61 161.33 264.556 167.385 264.556 174.854V276.976C264.556 284.445 270.61 290.5 278.079 290.5H511.06C518.529 290.5 524.584 284.445 524.584 276.976V174.854C524.584 167.385 518.529 161.33 511.06 161.33Z" fill="#F2F2F2"/>
<path d="M17 40.5C26.3888 40.5 34 32.8888 34 23.5C34 14.1112 26.3888 6.5 17 6.5C7.61116 6.5 0 14.1112 0 23.5C0 32.8888 7.61116 40.5 17 40.5Z" fill="#1793D1"/>
<path d="M22 34.5C31.3888 34.5 39 26.8888 39 17.5C39 8.11116 31.3888 0.5 22 0.5C12.6112 0.5 5 8.11116 5 17.5C5 26.8888 12.6112 34.5 22 34.5Z" stroke="#3F3D56" stroke-miterlimit="10"/>
<path d="M224 254.5C233.389 254.5 241 246.889 241 237.5C241 228.111 233.389 220.5 224 220.5C214.611 220.5 207 228.111 207 237.5C207 246.889 214.611 254.5 224 254.5Z" fill="#F2F2F2"/>
<path d="M229 248.5C238.389 248.5 246 240.889 246 231.5C246 222.111 238.389 214.5 229 214.5C219.611 214.5 212 222.111 212 231.5C212 240.889 219.611 248.5 229 248.5Z" stroke="#3F3D56" stroke-miterlimit="10"/>
<path d="M356 125.5C365.389 125.5 373 117.889 373 108.5C373 99.1112 365.389 91.5 356 91.5C346.611 91.5 339 99.1112 339 108.5C339 117.889 346.611 125.5 356 125.5Z" fill="#1793D1"/>
<path d="M361 119.5C370.389 119.5 378 111.889 378 102.5C378 93.1112 370.389 85.5 361 85.5C351.611 85.5 344 93.1112 344 102.5C344 111.889 351.611 119.5 361 119.5Z" stroke="#3F3D56" stroke-miterlimit="10"/>
<path d="M285.224 62.9752H52.2431C44.7742 62.9752 38.7195 69.03 38.7195 76.4988V178.622C38.7195 186.09 44.7742 192.145 52.2431 192.145H285.224C292.693 192.145 298.748 186.09 298.748 178.622V76.4988C298.748 69.03 292.693 62.9752 285.224 62.9752Z" fill="#1793D1"/>
<path d="M300.421 52H67.4395C59.9707 52 53.9159 58.0547 53.9159 65.5236V167.646C53.9159 175.115 59.9707 181.17 67.4395 181.17H300.421C307.89 181.17 313.944 175.115 313.944 167.646V65.5236C313.944 58.0547 307.89 52 300.421 52Z" stroke="#3F3D56" stroke-miterlimit="10"/>
<path d="M526.257 150.355H293.276C285.807 150.355 279.752 156.41 279.752 163.878V266.001C279.752 273.47 285.807 279.525 293.276 279.525H526.257C533.726 279.525 539.781 273.47 539.781 266.001V163.878C539.781 156.41 533.726 150.355 526.257 150.355Z" stroke="#3F3D56" stroke-miterlimit="10"/>
</g>
<defs>
<clipPath id="clip0">
<rect width="990.17" height="637.668" fill="white"/>
</clipPath>
</defs>
</svg>
