<svg width="875" height="664" viewBox="0 0 875 664" fill="none" xmlns="http://www.w3.org/2000/svg">
<g clip-path="url(#clip0)">
<path d="M422.917 586.749C234.77 572.431 10.3959 426.648 21.8191 276.54C33.2423 126.433 250.551 -13.305 438.698 1.01295C626.844 15.3309 735.148 295.857 723.725 445.965C712.302 596.072 611.063 601.067 422.917 586.749Z" fill="#F2F2F2"/>
<path d="M438.696 610.859C655.606 610.859 831.447 600.086 831.447 586.797C831.447 573.509 655.606 562.736 438.696 562.736C221.786 562.736 45.9453 573.509 45.9453 586.797C45.9453 600.086 221.786 610.859 438.696 610.859Z" fill="#3F3D56"/>
<path opacity="0.1" d="M438.696 602.321C623.455 602.321 773.233 595.197 773.233 586.409C773.233 577.622 623.455 570.498 438.696 570.498C253.936 570.498 104.159 577.622 104.159 586.409C104.159 595.197 253.936 602.321 438.696 602.321Z" fill="black"/>
<path d="M164.702 663.64C255.664 663.64 329.404 657.211 329.404 649.281C329.404 641.35 255.664 634.921 164.702 634.921C73.7395 634.921 0 641.35 0 649.281C0 657.211 73.7395 663.64 164.702 663.64Z" fill="#3F3D56"/>
<path opacity="0.1" d="M164.702 658.545C242.182 658.545 304.991 654.293 304.991 649.049C304.991 643.805 242.182 639.553 164.702 639.553C87.2221 639.553 24.4124 643.805 24.4124 649.049C24.4124 654.293 87.2221 658.545 164.702 658.545Z" fill="black"/>
<path d="M735.976 125.742H152.283V583.693H735.976V125.742Z" fill="#3F3D56"/>
<path d="M437.489 188.326H293.492C293.262 188.326 293.035 188.281 292.822 188.194C292.61 188.106 292.417 187.977 292.254 187.815C292.091 187.653 291.962 187.46 291.874 187.248C291.786 187.035 291.741 186.808 291.741 186.578C291.741 186.348 291.786 186.121 291.874 185.909C291.962 185.696 292.091 185.503 292.254 185.341C292.417 185.179 292.61 185.05 292.822 184.963C293.035 184.875 293.262 184.83 293.492 184.831H437.489C437.951 184.832 438.395 185.016 438.722 185.344C439.049 185.671 439.232 186.115 439.232 186.578C439.232 187.041 439.049 187.485 438.722 187.813C438.395 188.14 437.951 188.325 437.489 188.326V188.326Z" fill="#F2F2F2"/>
<path d="M595.116 207.548H368.636C368.172 207.548 367.728 207.364 367.4 207.037C367.073 206.709 366.888 206.264 366.888 205.801C366.888 205.337 367.073 204.893 367.4 204.565C367.728 204.238 368.172 204.053 368.636 204.053H595.116C595.345 204.053 595.573 204.099 595.785 204.186C595.997 204.274 596.189 204.403 596.352 204.565C596.514 204.728 596.643 204.92 596.73 205.132C596.818 205.344 596.863 205.571 596.863 205.801C596.863 206.03 596.818 206.258 596.73 206.47C596.643 206.682 596.514 206.874 596.352 207.037C596.189 207.199 595.997 207.328 595.785 207.415C595.573 207.503 595.345 207.548 595.116 207.548V207.548Z" fill="#F2F2F2"/>
<path d="M438.188 226.771H294.191C293.728 226.771 293.283 226.587 292.956 226.259C292.628 225.932 292.444 225.487 292.444 225.024C292.444 224.56 292.628 224.116 292.956 223.788C293.283 223.46 293.728 223.276 294.191 223.276H438.188C438.651 223.276 439.096 223.46 439.423 223.788C439.751 224.116 439.935 224.56 439.935 225.024C439.935 225.487 439.751 225.932 439.423 226.259C439.096 226.587 438.651 226.771 438.188 226.771V226.771Z" fill="#F2F2F2"/>
<path d="M595.116 227.121H451.119C450.656 227.121 450.211 226.937 449.884 226.609C449.556 226.281 449.372 225.837 449.372 225.373C449.372 224.91 449.556 224.465 449.884 224.138C450.211 223.81 450.656 223.626 451.119 223.626H595.116C595.579 223.626 596.024 223.81 596.352 224.138C596.679 224.465 596.863 224.91 596.863 225.373C596.863 225.837 596.679 226.281 596.352 226.609C596.024 226.937 595.579 227.121 595.116 227.121V227.121Z" fill="#F2F2F2"/>
<path d="M438.537 245.994H294.541C294.077 245.994 293.633 245.81 293.305 245.482C292.977 245.155 292.793 244.71 292.793 244.247C292.793 243.783 292.977 243.339 293.305 243.011C293.633 242.683 294.077 242.499 294.541 242.499H438.537C439.001 242.499 439.445 242.683 439.773 243.011C440.101 243.339 440.285 243.783 440.285 244.247C440.285 244.71 440.101 245.155 439.773 245.482C439.445 245.81 439.001 245.994 438.537 245.994V245.994Z" fill="#F2F2F2"/>
<path d="M438.887 265.217H294.89C294.427 265.217 293.982 265.033 293.655 264.705C293.327 264.377 293.143 263.933 293.143 263.469C293.143 263.006 293.327 262.561 293.655 262.234C293.982 261.906 294.427 261.722 294.89 261.722H438.887C439.35 261.722 439.795 261.906 440.122 262.234C440.45 262.561 440.634 263.006 440.634 263.469C440.634 263.933 440.45 264.377 440.122 264.705C439.795 265.033 439.35 265.217 438.887 265.217V265.217Z" fill="#F2F2F2"/>
<path d="M504.244 188.675H463.003C462.539 188.675 462.095 188.491 461.767 188.163C461.439 187.836 461.255 187.391 461.255 186.928C461.255 186.464 461.439 186.02 461.767 185.692C462.095 185.364 462.539 185.18 463.003 185.18H504.244C504.708 185.18 505.152 185.364 505.48 185.692C505.808 186.02 505.992 186.464 505.992 186.928C505.992 187.391 505.808 187.836 505.48 188.163C505.152 188.491 504.708 188.675 504.244 188.675V188.675Z" fill="#F2F2F2"/>
<path d="M504.244 245.994H463.003C462.539 245.994 462.095 245.81 461.767 245.482C461.439 245.155 461.255 244.71 461.255 244.247C461.255 243.783 461.439 243.339 461.767 243.011C462.095 242.683 462.539 242.499 463.003 242.499H504.244C504.708 242.499 505.152 242.683 505.48 243.011C505.808 243.339 505.992 243.783 505.992 244.247C505.992 244.71 505.808 245.155 505.48 245.482C505.152 245.81 504.708 245.994 504.244 245.994V245.994Z" fill="#F2F2F2"/>
<path d="M504.244 264.867H463.003C462.773 264.868 462.545 264.823 462.333 264.735C462.12 264.648 461.927 264.519 461.765 264.357C461.602 264.195 461.473 264.002 461.385 263.79C461.297 263.577 461.251 263.35 461.251 263.12C461.251 262.89 461.297 262.663 461.385 262.45C461.473 262.238 461.602 262.045 461.765 261.883C461.927 261.721 462.12 261.592 462.333 261.504C462.545 261.417 462.773 261.372 463.003 261.372H504.244C504.474 261.372 504.702 261.417 504.914 261.504C505.127 261.592 505.32 261.721 505.482 261.883C505.645 262.045 505.774 262.238 505.862 262.45C505.95 262.663 505.996 262.89 505.996 263.12C505.996 263.35 505.95 263.577 505.862 263.79C505.774 264.002 505.645 264.195 505.482 264.357C505.32 264.519 505.127 264.648 504.914 264.735C504.702 264.823 504.474 264.868 504.244 264.867V264.867Z" fill="#F2F2F2"/>
<path d="M573.446 264.867H532.205C531.742 264.866 531.298 264.682 530.971 264.354C530.645 264.027 530.461 263.583 530.461 263.12C530.461 262.657 530.645 262.213 530.971 261.886C531.298 261.558 531.742 261.373 532.205 261.372H573.446C573.676 261.372 573.904 261.417 574.116 261.504C574.329 261.592 574.522 261.721 574.684 261.883C574.847 262.045 574.976 262.238 575.064 262.45C575.152 262.663 575.198 262.89 575.198 263.12C575.198 263.35 575.152 263.577 575.064 263.79C574.976 264.002 574.847 264.195 574.684 264.357C574.522 264.519 574.329 264.648 574.116 264.735C573.904 264.823 573.676 264.868 573.446 264.867V264.867Z" fill="#F2F2F2"/>
<path d="M334.384 207.548H293.143C292.679 207.548 292.235 207.364 291.907 207.037C291.579 206.709 291.395 206.264 291.395 205.801C291.395 205.337 291.579 204.893 291.907 204.565C292.235 204.238 292.679 204.053 293.143 204.053H334.384C334.848 204.053 335.292 204.238 335.62 204.565C335.948 204.893 336.132 205.337 336.132 205.801C336.132 206.264 335.948 206.709 335.62 207.037C335.292 207.364 334.848 207.548 334.384 207.548V207.548Z" fill="#F2F2F2"/>
<path d="M437.663 471.425H293.667C293.203 471.425 292.759 471.241 292.431 470.914C292.104 470.586 291.919 470.141 291.919 469.678C291.919 469.214 292.104 468.77 292.431 468.442C292.759 468.115 293.203 467.93 293.667 467.93H437.663C438.127 467.93 438.571 468.115 438.899 468.442C439.227 468.77 439.411 469.214 439.411 469.678C439.411 470.141 439.227 470.586 438.899 470.914C438.571 471.241 438.127 471.425 437.663 471.425Z" fill="#F2F2F2"/>
<path d="M436.964 509.871H292.968C292.504 509.871 292.06 509.687 291.732 509.359C291.405 509.032 291.22 508.587 291.22 508.124C291.22 507.66 291.405 507.216 291.732 506.888C292.06 506.56 292.504 506.376 292.968 506.376H436.964C437.428 506.376 437.872 506.56 438.2 506.888C438.528 507.216 438.712 507.66 438.712 508.124C438.712 508.587 438.528 509.032 438.2 509.359C437.872 509.687 437.428 509.871 436.964 509.871Z" fill="#F2F2F2"/>
<path d="M437.314 529.094H293.317C293.088 529.094 292.86 529.05 292.648 528.962C292.435 528.874 292.242 528.746 292.079 528.583C291.917 528.421 291.788 528.228 291.7 528.016C291.612 527.804 291.566 527.576 291.566 527.346C291.566 527.117 291.612 526.889 291.7 526.677C291.788 526.465 291.917 526.272 292.079 526.109C292.242 525.947 292.435 525.818 292.648 525.731C292.86 525.643 293.088 525.598 293.317 525.599H437.314C437.544 525.598 437.771 525.643 437.984 525.731C438.196 525.818 438.389 525.947 438.552 526.109C438.715 526.272 438.844 526.465 438.932 526.677C439.02 526.889 439.065 527.117 439.065 527.346C439.065 527.576 439.02 527.804 438.932 528.016C438.844 528.228 438.715 528.421 438.552 528.583C438.389 528.746 438.196 528.874 437.984 528.962C437.771 529.05 437.544 529.094 437.314 529.094V529.094Z" fill="#F2F2F2"/>
<path d="M498.827 510.221H457.585C457.122 510.221 456.677 510.037 456.35 509.709C456.022 509.381 455.838 508.937 455.838 508.473C455.838 508.01 456.022 507.565 456.35 507.237C456.677 506.91 457.122 506.726 457.585 506.726H498.827C499.29 506.726 499.735 506.91 500.063 507.237C500.39 507.565 500.574 508.01 500.574 508.473C500.574 508.937 500.39 509.381 500.063 509.709C499.735 510.037 499.29 510.221 498.827 510.221Z" fill="#F2F2F2"/>
<path d="M498.827 529.094H457.585C457.122 529.094 456.677 528.91 456.35 528.582C456.022 528.254 455.838 527.81 455.838 527.346C455.838 526.883 456.022 526.438 456.35 526.111C456.677 525.783 457.122 525.599 457.585 525.599H498.827C499.29 525.599 499.735 525.783 500.063 526.111C500.39 526.438 500.574 526.883 500.574 527.346C500.574 527.81 500.39 528.254 500.063 528.582C499.735 528.91 499.29 529.094 498.827 529.094V529.094Z" fill="#F2F2F2"/>
<path d="M568.029 510.221H526.787C526.324 510.221 525.879 510.037 525.552 509.709C525.224 509.381 525.04 508.937 525.04 508.473C525.04 508.01 525.224 507.565 525.552 507.237C525.879 506.91 526.324 506.726 526.787 506.726H568.029C568.493 506.726 568.937 506.91 569.265 507.237C569.593 507.565 569.777 508.01 569.777 508.473C569.777 508.937 569.593 509.381 569.265 509.709C568.937 510.037 568.493 510.221 568.029 510.221V510.221Z" fill="#F2F2F2"/>
<path d="M595.291 490.648H368.811C368.347 490.648 367.903 490.464 367.575 490.136C367.247 489.809 367.063 489.364 367.063 488.901C367.063 488.437 367.247 487.993 367.575 487.665C367.903 487.337 368.347 487.153 368.811 487.153H595.291C595.754 487.153 596.199 487.337 596.526 487.665C596.854 487.993 597.038 488.437 597.038 488.901C597.038 489.364 596.854 489.809 596.526 490.136C596.199 490.464 595.754 490.648 595.291 490.648V490.648Z" fill="#F2F2F2"/>
<path d="M334.559 490.648H293.317C292.854 490.648 292.409 490.464 292.082 490.136C291.754 489.809 291.57 489.364 291.57 488.901C291.57 488.437 291.754 487.993 292.082 487.665C292.409 487.337 292.854 487.153 293.317 487.153H334.559C335.023 487.153 335.467 487.337 335.795 487.665C336.123 487.993 336.307 488.437 336.307 488.901C336.307 489.364 336.123 489.809 335.795 490.136C335.467 490.464 335.023 490.648 334.559 490.648V490.648Z" fill="#F2F2F2"/>
<path d="M595.291 548.666H368.811C368.581 548.667 368.353 548.622 368.141 548.534C367.928 548.447 367.735 548.318 367.573 548.156C367.41 547.993 367.281 547.801 367.193 547.588C367.105 547.376 367.059 547.149 367.059 546.919C367.059 546.689 367.105 546.461 367.193 546.249C367.281 546.037 367.41 545.844 367.573 545.682C367.735 545.519 367.928 545.391 368.141 545.303C368.353 545.216 368.581 545.171 368.811 545.171H595.291C595.754 545.171 596.199 545.355 596.526 545.683C596.854 546.011 597.038 546.455 597.038 546.919C597.038 547.382 596.854 547.827 596.526 548.154C596.199 548.482 595.754 548.666 595.291 548.666V548.666Z" fill="#F2F2F2"/>
<path d="M334.559 548.666H293.317C293.088 548.667 292.86 548.622 292.648 548.534C292.435 548.447 292.242 548.318 292.079 548.156C291.917 547.993 291.788 547.801 291.7 547.588C291.612 547.376 291.566 547.149 291.566 546.919C291.566 546.689 291.612 546.461 291.7 546.249C291.788 546.037 291.917 545.844 292.079 545.682C292.242 545.519 292.435 545.391 292.648 545.303C292.86 545.216 293.088 545.171 293.317 545.171H334.559C334.789 545.171 335.017 545.216 335.229 545.303C335.441 545.391 335.635 545.519 335.797 545.682C335.96 545.844 336.089 546.037 336.177 546.249C336.265 546.461 336.31 546.689 336.31 546.919C336.31 547.149 336.265 547.376 336.177 547.588C336.089 547.801 335.96 547.993 335.797 548.156C335.635 548.318 335.441 548.447 335.229 548.534C335.017 548.622 334.789 548.667 334.559 548.666Z" fill="#F2F2F2"/>
<path d="M402.888 311.352L346.966 366.574L402.888 421.796L415.47 409.214L373.18 366.923L415.819 324.283L402.888 311.352Z" fill="#1793D1"/>
<path d="M485.371 311.352L541.292 366.574L485.371 421.796L472.789 409.214L515.079 366.923L472.439 324.283L485.371 311.352Z" fill="#1793D1"/>
<path d="M167.807 144.371C171.665 144.371 174.792 141.243 174.792 137.385C174.792 133.527 171.665 130.399 167.807 130.399C163.949 130.399 160.821 133.527 160.821 137.385C160.821 141.243 163.949 144.371 167.807 144.371Z" fill="#1793D1"/>
<path d="M186.435 144.371C190.293 144.371 193.421 141.243 193.421 137.385C193.421 133.527 190.293 130.399 186.435 130.399C182.577 130.399 179.449 133.527 179.449 137.385C179.449 141.243 182.577 144.371 186.435 144.371Z" fill="#1793D1"/>
<path d="M205.064 144.371C208.922 144.371 212.049 141.243 212.049 137.385C212.049 133.527 208.922 130.399 205.064 130.399C201.206 130.399 198.078 133.527 198.078 137.385C198.078 141.243 201.206 144.371 205.064 144.371Z" fill="#1793D1"/>
<path opacity="0.1" d="M735.976 149.028H152.283V151.357H735.976V149.028Z" fill="black"/>
<path d="M874.137 471.498C874.137 520.996 844.711 538.279 808.412 538.279C772.113 538.279 742.688 520.996 742.688 471.498C742.688 421.999 808.412 359.03 808.412 359.03C808.412 359.03 874.137 421.999 874.137 471.498Z" fill="#F2F2F2"/>
<path d="M806.018 530.707L806.691 489.281L834.705 438.032L806.797 482.783L807.1 464.156L826.406 427.078L807.179 459.227L807.724 425.726L828.397 396.207L807.809 420.458L808.149 359.03L806.012 440.35L806.188 436.996L785.168 404.822L805.851 443.436L803.892 480.85L803.834 479.857L779.602 445.999L803.76 483.365L803.516 488.044L803.472 488.115L803.492 488.499L798.523 583.423H805.161L805.958 534.393L830.058 497.118L806.018 530.707Z" fill="#3F3D56"/>
<path d="M95.1773 582.987C93.1608 584.11 91.0335 585.021 88.8296 585.706C84.8875 586.783 80.674 586.388 76.6922 587.307C75.062 587.684 73.2876 588.471 72.7692 590.062C72.3889 591.228 72.8026 592.489 73.1988 593.65C77.5986 606.55 80.2506 620.247 87.2673 631.932C90.2162 636.84 93.8763 641.283 98.1283 645.118C99.7234 646.555 101.531 647.962 103.667 648.187C104.651 648.291 105.645 648.134 106.549 647.731C107.453 647.328 108.234 646.693 108.815 645.892C109.395 645.09 109.753 644.149 109.854 643.165C109.955 642.18 109.794 641.187 109.388 640.284C108.758 638.886 107.589 637.803 106.835 636.469C106.017 634.769 105.537 632.926 105.422 631.043C104.729 625.525 104.061 619.759 105.973 614.537C107.255 611.035 109.607 608.049 111.567 604.875C113.526 601.702 115.154 598.067 114.718 594.363C114.42 591.835 113.187 589.522 111.885 587.335C110.58 585.144 108 579.256 105.378 578.525C102.656 577.766 97.551 581.771 95.1773 582.987Z" fill="#2F2E41"/>
<path d="M166.924 627.547C166.965 628.796 166.791 630.042 166.409 631.231C165.589 633.398 163.552 634.883 162.5 636.949C161.037 639.821 161.7 643.293 162.67 646.367C163.277 648.295 164.074 650.3 165.706 651.492C167.102 652.357 168.689 652.866 170.328 652.973C184.327 654.91 198.548 653.798 212.675 654.204C215.25 654.278 217.976 654.369 220.224 653.11C222.472 651.852 223.861 648.688 222.333 646.615C220.96 644.753 218.246 644.771 215.935 644.661C209.919 644.355 204.189 641.995 199.703 637.974C198.818 637.219 198.051 636.335 197.426 635.354C196.945 634.482 196.547 633.568 196.235 632.623C194.255 627.259 191.899 622.041 189.184 617.008C188.425 615.599 187.564 614.132 186.153 613.378C185.119 612.908 183.997 612.663 182.862 612.659C179.341 612.431 170.223 611.233 167.501 613.971C164.985 616.501 166.98 624.334 166.924 627.547Z" fill="#2F2E41"/>
<path d="M188.591 314.895C201.012 314.895 211.081 304.826 211.081 292.405C211.081 279.985 201.012 269.915 188.591 269.915C176.17 269.915 166.101 279.985 166.101 292.405C166.101 304.826 176.17 314.895 188.591 314.895Z" fill="#FBBEBE"/>
<path d="M168.282 310.976C166.944 314.557 164.675 317.921 161.373 319.848L192.479 326.193C191.351 321.653 191.202 316.925 192.043 312.323C192.351 311.209 192.415 310.042 192.229 308.901C191.644 306.644 189.104 305.558 186.831 305.04C181.154 303.746 176.133 303.052 170.858 300.544C169.245 303.305 169.471 307.793 168.282 310.976Z" fill="#FBBEBE"/>
<path d="M161.114 311.427C164.46 309.913 168.106 309.176 171.777 309.272C175.449 309.368 179.051 310.294 182.314 311.981C186.302 314.083 189.604 317.255 192.848 320.384C195.838 323.269 199.028 326.573 199.24 330.722C199.343 332.732 198.716 334.698 198.399 336.686C197.83 340.797 198.553 344.984 200.47 348.665C202.386 352.346 205.401 355.34 209.095 357.232C211.566 361.348 212.076 366.335 212.114 371.136C212.257 389.327 206.518 407.742 210.615 425.466C211.577 429.627 213.069 433.658 213.9 437.847C214.977 443.273 214.924 448.853 215.487 454.356C216.098 460.316 217.43 466.179 219.456 471.817C218.102 473.97 215.285 474.795 212.748 474.621C210.211 474.447 207.838 473.346 205.574 472.187C194.612 466.577 184.571 459.18 173.217 454.413C165.706 451.259 157.703 449.294 150.416 445.651C143.129 442.008 136.352 436.227 134.124 428.39C133.16 425.002 133.101 421.432 133.048 417.909C132.827 403.073 132.621 388.076 135.85 373.594C138.698 360.823 144.188 348.605 145.385 335.576C145.775 331.334 145.783 326.794 148.153 323.255C151.503 318.253 158.734 316.957 161.114 311.427Z" fill="#2F2E41"/>
<path d="M175.8 292.723C177.125 290.995 179.681 290.759 181.798 291.27C183.915 291.781 185.867 292.872 188.006 293.287C188.492 293.425 189.001 293.46 189.501 293.39C190.002 293.319 190.482 293.145 190.911 292.879C191.658 292.143 192.105 291.155 192.165 290.108C192.914 285.652 193.089 281.118 192.686 276.617C192.574 275.986 192.617 275.337 192.809 274.725C193.338 273.45 194.953 273.146 196.272 272.737C198.449 272.001 200.318 270.562 201.585 268.646C202.851 266.729 203.444 264.446 203.268 262.155C203.235 261.057 202.774 260.014 201.982 259.252C201.07 258.508 199.793 258.463 198.617 258.453C192.571 258.405 186.525 258.406 180.48 258.458C178.242 258.477 175.892 258.532 173.952 259.647C172.518 260.472 171.452 261.8 170.164 262.839C166.806 265.548 162.264 266.1 158.179 267.489C156.185 268.057 154.374 269.136 152.926 270.621C151.568 272.173 150.914 274.481 151.768 276.359C152.206 277.142 152.695 277.895 153.232 278.613C155.642 282.466 154.038 287.464 154.398 291.994C154.847 297.651 163.219 306.828 168.896 308.167C178.061 310.328 172.766 296.436 175.8 292.723Z" fill="#2F2E41"/>
<path d="M163.104 540.756C163.682 544.887 164.424 549.032 164.225 553.198C163.948 559.014 161.851 564.618 161.463 570.429C161.173 574.768 161.843 579.155 161.241 583.462C160.855 586.22 159.955 588.878 159.399 591.607C158.517 596.054 158.542 600.632 159.472 605.069C160.402 609.506 162.218 613.709 164.811 617.427C165.192 618.064 165.734 618.589 166.382 618.949C167.003 619.18 167.668 619.268 168.328 619.207C174.874 619.074 181.402 618.48 187.865 617.431C188.338 617.412 188.786 617.214 189.119 616.878C189.265 616.655 189.358 616.402 189.392 616.137C190.59 609.978 187.858 603.801 187.163 597.565C186.421 590.905 188.019 584.232 189.605 577.722C190.324 574.51 191.222 571.341 192.296 568.231C193.063 566.137 193.989 564.101 194.653 561.972C195.594 558.629 196.167 555.192 196.362 551.725C196.824 546.252 197.068 540.768 197.095 535.27C197.252 530.061 196.819 524.851 195.803 519.739C194.345 513.267 191.36 507.257 188.401 501.32C186.819 501.699 185.334 502.405 184.041 503.392C180.228 505.862 176.247 508.061 172.126 509.975C169.358 511.261 163.959 512.174 162.202 514.853C160.47 517.496 161.588 522.888 161.72 525.802C161.947 530.805 162.408 535.789 163.104 540.756Z" fill="#2F2E41"/>
<path opacity="0.1" d="M163.104 540.756C163.682 544.887 164.424 549.032 164.225 553.198C163.948 559.014 161.851 564.618 161.463 570.429C161.173 574.768 161.843 579.155 161.241 583.462C160.855 586.22 159.955 588.878 159.399 591.607C158.517 596.054 158.542 600.632 159.472 605.069C160.402 609.506 162.218 613.709 164.811 617.427C165.192 618.064 165.734 618.589 166.382 618.949C167.003 619.18 167.668 619.268 168.328 619.207C174.874 619.074 181.402 618.48 187.865 617.431C188.338 617.412 188.786 617.214 189.119 616.878C189.265 616.655 189.358 616.402 189.392 616.137C190.59 609.978 187.858 603.801 187.163 597.565C186.421 590.905 188.019 584.232 189.605 577.722C190.324 574.51 191.222 571.341 192.296 568.231C193.063 566.137 193.989 564.101 194.653 561.972C195.594 558.629 196.167 555.192 196.362 551.725C196.824 546.252 197.068 540.768 197.095 535.27C197.252 530.061 196.819 524.851 195.803 519.739C194.345 513.267 191.36 507.257 188.401 501.32C186.819 501.699 185.334 502.405 184.041 503.392C180.228 505.862 176.247 508.061 172.126 509.975C169.358 511.261 163.959 512.174 162.202 514.853C160.47 517.496 161.588 522.888 161.72 525.802C161.947 530.805 162.408 535.789 163.104 540.756Z" fill="black"/>
<path d="M132.698 452.531C129.711 460.572 134.101 469.261 137.915 476.944C147.312 495.872 153.837 516.069 160.327 536.18C160.814 537.687 161.299 539.33 160.757 540.817C160.289 541.874 159.529 542.775 158.567 543.415C154.092 546.814 148.394 548.025 143.063 549.803C137.911 551.522 132.977 553.836 128.36 556.696C124.497 559.089 120.878 561.853 117.267 564.611L105.77 573.391C105.026 573.894 104.375 574.524 103.848 575.252C102.739 576.991 103.194 579.262 103.746 581.25C105.208 586.513 107.09 591.651 109.375 596.613C109.751 597.7 110.466 598.638 111.416 599.288C113.21 600.252 115.405 598.973 116.776 597.466C118.146 595.958 119.331 594.083 121.263 593.435C123.192 592.789 125.316 593.572 127.331 593.289C130.59 592.831 132.753 589.829 135.103 587.525C144.7 578.108 160.725 578.792 171.283 570.466C172.809 569.1 174.425 567.838 176.119 566.688C177.904 565.633 179.928 565.054 181.78 564.121C187.412 561.285 190.953 555.422 192.85 549.407C194.747 543.393 195.288 537.044 196.651 530.887C197.356 527.704 198.283 524.555 198.597 521.31C198.798 518.292 198.733 515.262 198.4 512.255L194.591 465.128C194.281 461.291 193.97 457.45 193.368 453.648C182.053 454.052 170.747 454.508 159.427 454.642C150.419 454.748 141.245 455.378 132.698 452.531Z" fill="#2F2E41"/>
<path d="M128.539 463.555C130.073 466.024 133.809 465.973 136.381 464.619C138.954 463.266 140.952 460.993 143.531 459.651C146.995 457.848 151.095 457.916 155 458.026C161.181 458.201 167.438 458.386 173.385 460.08C179.536 461.832 185.524 465.206 191.885 464.533C192.992 464.416 194.202 464.098 194.804 463.162C195.157 462.484 195.323 461.725 195.285 460.961L195.493 455.405C195.62 454.444 195.467 453.466 195.051 452.591C194.517 451.862 193.785 451.302 192.943 450.977C183.89 446.594 173.565 445.778 163.513 445.434C158.404 445.259 153.292 445.187 148.178 445.218C143.838 445.244 138.628 444.616 134.409 445.776C128.747 447.332 125.666 458.935 128.539 463.555Z" fill="#2F2E41"/>
<path d="M185.384 318.024C173.522 317.919 162.773 310.089 150.912 309.898C149.479 309.799 148.043 310.047 146.726 310.621C145.074 311.453 143.987 313.063 142.732 314.423C139.225 318.22 134.146 320.248 130.543 323.955C127.165 327.431 125.286 332.609 126.62 337.269C127.954 341.929 132.987 345.503 137.703 344.383C139.603 338.233 143.524 332.905 148.831 329.263C151.592 327.492 154.502 325.964 157.528 324.698C162.859 322.282 168.82 319.821 174.386 321.631C176.438 322.406 178.373 323.462 180.137 324.767L189.415 331C188.334 326.736 187.362 321.953 185.384 318.024Z" fill="#1793D1"/>
<path d="M136.337 340.26C134.762 342.225 137.031 345.072 136.683 347.567C136.453 349.224 135.089 350.489 134.521 352.063C133.933 353.693 134.244 355.499 134.021 357.218C133.797 358.468 133.466 359.696 133.032 360.889C132.032 364.453 131.335 368.095 130.947 371.776L128.87 387.281C128.51 389.614 128.291 391.967 128.214 394.327C128.318 396.09 128.2 397.86 127.863 399.594C127.403 401.289 126.385 402.771 125.7 404.388C125.015 406.004 124.698 407.96 125.623 409.452C122.525 412.032 121.604 417.1 123.77 420.501C124.182 421.031 124.505 421.625 124.725 422.259C124.845 423.146 124.698 424.048 124.304 424.852L122.205 430.446C121.668 431.877 121.498 434.057 122.992 434.384C121.754 435.669 120.79 437.192 120.158 438.86C119.851 439.698 119.759 440.599 119.891 441.481C120.023 442.363 120.374 443.199 120.912 443.91C121.434 444.367 121.878 444.906 122.228 445.506C122.433 446.341 122.38 447.219 122.076 448.023C121.762 449.245 121.701 450.518 121.898 451.764C122.094 453.01 122.544 454.202 123.219 455.268C123.918 456.319 124.909 457.144 126.069 457.641C127.229 458.138 128.51 458.287 129.753 458.069C133.953 457.121 137.726 455.626 141.961 456.403C151.078 458.076 160.224 459.756 169.054 462.575C179.132 465.793 188.891 470.511 199.423 471.502C200.116 471.644 200.837 471.531 201.454 471.186C201.991 470.677 202.325 469.991 202.394 469.255C203.479 464.167 204.564 459.079 205.649 453.991C206.961 448.352 207.96 442.644 208.641 436.894C209.012 433.183 209.117 429.451 209.223 425.723L210.062 396.048C210.455 391.675 209.872 387.269 208.354 383.148L203.528 367.742C200.774 358.951 194.456 351.154 192.207 342.22C190.783 336.566 189.732 330.497 185.914 326.09C180.471 319.807 171.054 318.83 162.812 319.91C159.088 320.398 155.333 321.24 152.112 323.171C148.387 325.404 145.644 328.922 142.989 332.358C140.802 335.191 138.575 337.468 136.337 340.26Z" fill="#1793D1"/>
<path d="M155.582 427.542C156.261 430.47 157.687 433.17 158.56 436.047C160.023 440.866 159.899 446.056 161.359 450.876C161.971 452.899 162.859 454.842 163.299 456.909C164.324 461.73 162.827 466.717 160.967 471.281C159.108 475.845 156.843 480.345 156.24 485.236C155.814 488.682 156.425 492.572 159.081 494.807C161.837 497.128 165.844 496.971 169.434 496.662C170.723 496.626 171.995 496.361 173.192 495.88C175.938 494.581 177.094 491.332 177.736 488.362C179.887 478.412 179.273 468.099 178.647 457.939L177.013 431.366C176.698 426.251 176.361 421.029 174.784 416.117C174.211 414.33 173.212 410.72 171.579 409.579C169.963 408.449 165.347 408.398 163.345 408.304C153.955 407.863 154.06 420.97 155.582 427.542Z" fill="#FBBEBE"/>
<path d="M165.986 329.432C164.068 328.428 161.652 328.861 159.799 329.979C158.009 331.204 156.441 332.726 155.163 334.479C151.019 339.538 146.632 345.342 147.247 351.852C147.477 354.293 148.412 356.603 149.046 358.971C151.824 369.356 148.752 380.34 149.104 391.084C149.308 397.293 150.659 403.4 152.004 409.464C152.279 410.702 152.719 412.134 153.916 412.551C154.815 412.864 155.787 412.462 156.677 412.123C159.993 410.898 163.556 410.489 167.063 410.931C170.571 411.373 173.921 412.653 176.829 414.663C179.053 413.477 178.22 409.725 177.721 407.254C176.24 399.913 178.251 392.34 180.693 385.26C183.135 378.181 186.057 371.11 186.461 363.632C186.92 355.159 184.11 346.889 181.338 338.87C180.733 337.119 180.072 335.284 178.669 334.074C177.469 333.181 176.092 332.552 174.631 332.229C171.687 331.359 168.706 330.856 165.986 329.432Z" fill="#2F2E41"/>
</g>
<defs>
<clipPath id="clip0">
<rect width="874.137" height="663.64" fill="white"/>
</clipPath>
</defs>
</svg>
